<svg xmlns="http://www.w3.org/2000/svg" viewBox="0 0 236.69 94.84">
  <path fill="#fff" d="m17.73,66.93c0-.77-.22-1.41-.65-1.91-.44-.5-1.02-.92-1.74-1.25-.72-.34-1.55-.63-2.49-.88-.94-.25-1.91-.5-2.94-.75-1.3-.35-2.54-.75-3.74-1.22-1.2-.46-2.25-1.07-3.16-1.81-.91-.75-1.63-1.69-2.17-2.82-.54-1.13-.8-2.52-.8-4.17,0-2.02.36-3.77,1.08-5.26.72-1.48,1.7-2.71,2.94-3.68s2.67-1.7,4.3-2.17c1.63-.47,3.36-.71,5.18-.71,2.22,0,4.3.18,6.25.54,1.95.36,3.7.83,5.27,1.4v7.22c-.82-.27-1.69-.53-2.6-.77-.91-.24-1.83-.44-2.77-.62-.94-.17-1.86-.32-2.79-.43-.92-.11-1.8-.17-2.62-.17-1.05,0-1.93.1-2.66.3-.72.2-1.31.47-1.76.8-.45.34-.77.72-.97,1.16-.2.44-.3.89-.3,1.37,0,.82.22,1.5.65,2.02.44.52,1.04.95,1.81,1.27.77.32,1.58.59,2.43.8.85.21,1.67.42,2.47.62,1.25.3,2.49.66,3.74,1.08,1.25.42,2.37,1.02,3.37,1.78,1,.76,1.81,1.75,2.45,2.96.64,1.21.95,2.75.95,4.62,0,2.05-.39,3.83-1.16,5.35-.77,1.52-1.85,2.79-3.24,3.8-1.38,1.01-3.04,1.76-4.98,2.24-1.93.49-4.06.73-6.38.73s-4.36-.18-6.19-.54c-1.83-.36-3.35-.82-4.55-1.37v-7.15c1.95.72,3.74,1.22,5.39,1.48s3.18.39,4.6.39c1.1,0,2.12-.08,3.07-.24.95-.16,1.76-.42,2.45-.77.69-.35,1.23-.79,1.63-1.33.4-.54.6-1.18.6-1.93Z"/>
  <path fill="#fff" d="m29.67,41.2h9.5l5.42,13.13c2.04,4.99,3.49,8.68,4.34,11.07h.15c.62-1.87,1.95-5.34,3.97-10.4l5.61-13.8h9.61l-23.34,53.65h-8.75l8.31-19.42-14.81-34.23Z"/>
  <path fill="#fff" d="m81.67,46.25h.15c.52-.75,1.18-1.48,1.98-2.21.8-.72,1.71-1.36,2.73-1.91,1.02-.55,2.15-.99,3.39-1.33,1.23-.34,2.55-.5,3.95-.5,1.32,0,2.6.15,3.83.45,1.23.3,2.36.77,3.39,1.4,1.02.64,1.93,1.46,2.71,2.47.79,1.01,1.4,2.21,1.85,3.61.25.77.42,1.61.5,2.52.09.91.13,1.96.13,3.16v23.53h-8.87v-22.15c0-.97-.04-1.81-.11-2.51-.07-.7-.21-1.31-.41-1.83-.45-1.15-1.13-1.97-2.04-2.47-.91-.5-2.01-.75-3.31-.75-1.72,0-3.37.41-4.96,1.22-1.58.81-2.99,1.99-4.21,3.54v24.95h-8.87v-36.25h7.33l.82,5.05Z"/>
  <path fill="#fff" d="m138.15,77.41c-1,.3-2.19.54-3.57.71-1.38.17-2.67.26-3.87.26-3.04,0-5.53-.49-7.46-1.48-1.93-.98-3.3-2.4-4.1-4.25-.57-1.32-.86-3.12-.86-5.39v-18.78h-6.77v-7.29h6.77v-10.14h8.87v10.14h10.47v7.29h-10.47v17.62c0,1.4.21,2.43.64,3.1.75,1.15,2.23,1.72,4.45,1.72,1.02,0,2.04-.08,3.05-.24,1.01-.16,1.96-.37,2.86-.62v7.33Z"/>
  <path fill="#fff" d="m154.31,38.05c0,1.87-.03,3.41-.09,4.62-.06,1.21-.17,2.3-.32,3.27h.15c.52-.7,1.17-1.4,1.93-2.09.76-.7,1.6-1.3,2.51-1.81.91-.51,1.95-.93,3.1-1.25s2.44-.49,3.83-.49c1.2,0,2.36.12,3.5.35,1.13.24,2.19.6,3.18,1.1.98.5,1.88,1.15,2.69,1.94.81.8,1.49,1.75,2.04,2.84.47.95.82,2.02,1.05,3.22s.34,2.66.34,4.38v23.31h-8.87v-22.11c0-1.12-.05-2.04-.15-2.75-.1-.71-.27-1.33-.52-1.85-.52-1.1-1.27-1.87-2.24-2.32s-2.08-.67-3.33-.67c-1.72.02-3.31.44-4.77,1.23-1.46.8-2.8,1.97-4.02,3.52v24.95h-8.87V31.06h8.87v7Z"/>
  <path fill="#fff" d="m188.17,41.2h8.87v36.25h-8.87v-36.25Z"/>
  <path fill="#fff" d="m228.31,73.59h-.15c-.5.52-1.1,1.06-1.8,1.61-.7.55-1.5,1.07-2.39,1.55-.9.49-1.9.88-2.99,1.18-1.1.3-2.28.45-3.55.45-1.72,0-3.33-.27-4.83-.8-1.5-.54-2.78-1.31-3.85-2.32-1.07-1.01-1.91-2.23-2.53-3.67-.61-1.43-.92-3.04-.92-4.81,0-1.95.36-3.69,1.07-5.24.71-1.55,1.7-2.86,2.97-3.93,1.27-1.07,2.79-1.89,4.56-2.45,1.77-.56,3.73-.84,5.87-.84,1.57,0,3.02.1,4.34.3,1.32.2,2.48.44,3.48.71v-1.46c0-.85-.14-1.67-.43-2.45-.29-.79-.75-1.48-1.38-2.09-.64-.61-1.46-1.1-2.49-1.46-1.02-.36-2.27-.54-3.74-.54-1.8,0-3.59.2-5.39.6-1.8.4-3.74,1-5.84,1.8v-6.92c1.82-.8,3.75-1.41,5.8-1.83,2.04-.42,4.19-.65,6.44-.67,2.64,0,4.96.32,6.94.97,1.98.65,3.64,1.54,4.97,2.67,1.33,1.14,2.33,2.48,2.99,4.02.66,1.55.99,3.23.99,5.05v13.65c0,2.39.02,4.45.08,6.17.05,1.72.1,3.25.15,4.6h-8.01l-.37-3.85Zm-.71-11.6c-.85-.2-1.82-.38-2.92-.54-1.1-.16-2.21-.24-3.33-.24-2.17,0-3.88.43-5.14,1.29-1.26.86-1.89,2.18-1.89,3.95,0,.82.14,1.54.43,2.15.29.61.67,1.12,1.16,1.52s1.05.7,1.7.9c.65.2,1.33.3,2.06.3.9,0,1.75-.12,2.54-.36.8-.24,1.53-.54,2.21-.9.67-.36,1.28-.77,1.81-1.22.54-.45.99-.89,1.37-1.31v-5.54Z"/>
  <path fill="#fff" d="m210.96,15.53l-15.53-15.53-2.83,2.83-2.83-2.83-15.53,15.53,15.53,15.53,2.83-2.83,2.83,2.83,15.53-15.53Zm-25.4,0l7.04-7.04,7.04,7.04-7.04,7.04-7.04-7.04Z"/>
</svg>