<svg xmlns="http://www.w3.org/2000/svg" xmlns:xlink="http://www.w3.org/1999/xlink" width="515" height="515" viewBox="0 0 515 515">
  <defs>
    <linearGradient id="linear-gradient" x1="0.8" y1="-0.14" x2="0.293" y2="1.21" gradientUnits="objectBoundingBox">
      <stop offset="0" stop-color="#424242"/>
      <stop offset="0.354" stop-color="#171717" stop-opacity="0.949"/>
      <stop offset="1"/>
    </linearGradient>
    <filter id="icon" x="59.5" y="94.473" width="392" height="338.053" filterUnits="userSpaceOnUse">
      <feOffset dx="-2" dy="6" input="SourceAlpha"/>
      <feGaussianBlur stdDeviation="7" result="blur"/>
      <feFlood flood-color="#fff" flood-opacity="0.161"/>
      <feComposite operator="in" in2="blur"/>
      <feComposite in="SourceGraphic"/>
    </filter>
    <filter id="icon-2" x="59.5" y="94.473" width="392" height="338.053" filterUnits="userSpaceOnUse">
      <feOffset dy="3" input="SourceAlpha"/>
      <feGaussianBlur stdDeviation="3" result="blur-2"/>
      <feFlood flood-opacity="0.161" result="color"/>
      <feComposite operator="out" in="SourceGraphic" in2="blur-2"/>
      <feComposite operator="in" in="color"/>
      <feComposite operator="in" in2="SourceGraphic"/>
    </filter>
  </defs>
  <g id="Group_2" data-name="Group 2" transform="translate(732 -2163)">
    <rect id="bg" width="515" height="515" rx="115" transform="translate(-732 2163)" fill="url(#linear-gradient)"/>
    <g data-type="innerShadowGroup">
      <g transform="matrix(1, 0, 0, 1, -732, 2163)" filter="url(#icon)">
        <path id="icon-3" data-name="icon" d="M524.24,148.027,376.213,0,349.24,26.973,322.267,0,174.24,148.027,322.267,296.053,349.24,269.08l26.973,26.973Zm-242.1,0,67.1-67.1,67.1,67.1-67.1,67.1Z" transform="translate(-91.74 109.47)" fill="#fff"/>
      </g>
      <g transform="matrix(1, 0, 0, 1, -732, 2163)" filter="url(#icon-2)">
        <path id="icon-4" data-name="icon" d="M524.24,148.027,376.213,0,349.24,26.973,322.267,0,174.24,148.027,322.267,296.053,349.24,269.08l26.973,26.973Zm-242.1,0,67.1-67.1,67.1,67.1-67.1,67.1Z" transform="translate(-91.74 109.47)" fill="#fff"/>
      </g>
    </g>
  </g>
</svg>
